<svg xmlns="http://www.w3.org/2000/svg" version="1.1" xmlns:xlink="http://www.w3.org/1999/xlink" xmlns:svgjs="http://svgjs.dev/svgjs" width="1000" height="100" viewBox="0 0 1000 1000"><rect width="100" height="1000" fill="#08016c"></rect><g transform="matrix(0.7,0,0,0.7,149.57575757575756,282.1265587044535)"><svg viewBox="0 0 396 247" data-background-color="#08016c" preserveAspectRatio="xMidYMid meet" height="623" width="1000" xmlns="http://www.w3.org/2000/svg" xmlns:xlink="http://www.w3.org/1999/xlink"><g id="tight-bounds" transform="matrix(1,0,0,1,0.2400000000000091,-0.09999999999999432)"><svg viewBox="0 0 395.52 247.2" height="247.2" width="395.52"><g><svg></svg></g><g><svg viewBox="0 0 395.52 247.2" height="247.2" width="395.52"><g transform="matrix(1,0,0,1,81.71693677599441,47.215199999999996)"><svg viewBox="0 0 232.08612644801116 152.7696" height="152.7696" width="232.08612644801116"><g><svg viewBox="0 0 232.08612644801116 152.7696" height="152.7696" width="232.08612644801116"><g><svg viewBox="0 0 232.08612644801116 152.7696" height="152.7696" width="232.08612644801116"><g><svg viewBox="0 0 232.08612644801116 152.7696" height="152.7696" width="232.08612644801116"><g><svg viewBox="0 0 232.08612644801116 152.7696" height="152.7696" width="232.08612644801116"><g><svg viewBox="0 0 232.08612644801116 152.7696" height="152.7696" width="232.08612644801116"><g transform="matrix(1,0,0,1,0,0)"><svg width="232.08612644801116" viewBox="4.35 -35.83 54.42 35.83" height="152.7696" data-palette-color="#1503fc"><path d="M17.03 0L4.35 0 4.35-35.83 15.78-35.83Q19.07-35.83 21.46-35.18 23.85-34.52 25.39-33.33 26.93-32.13 27.66-30.39 28.4-28.65 28.4-26.48L28.4-26.48Q28.4-25.15 27.99-23.93 27.58-22.7 26.74-21.65 25.9-20.6 24.64-19.78 23.38-18.95 21.68-18.43L21.68-18.43Q25.6-17.65 27.6-15.6 29.6-13.55 29.6-10.2L29.6-10.2Q29.6-7.93 28.76-6.05 27.93-4.17 26.31-2.83 24.7-1.48 22.36-0.74 20.03 0 17.03 0L17.03 0ZM16.93-16.32L9.2-16.32 9.2-3.85 16.95-3.85Q19.03-3.85 20.51-4.33 22-4.8 22.96-5.66 23.93-6.53 24.38-7.71 24.83-8.9 24.83-10.33L24.83-10.33Q24.83-13.1 22.86-14.71 20.9-16.32 16.93-16.32L16.93-16.32ZM9.2-32L9.2-19.78 15.6-19.78Q17.65-19.78 19.15-20.23 20.65-20.68 21.64-21.48 22.63-22.28 23.1-23.41 23.58-24.55 23.58-25.9L23.58-25.9Q23.58-29.05 21.68-30.53 19.78-32 15.78-32L15.78-32 9.2-32ZM36.7-35.83L58.77-35.83 58.77-31.88 41.57-31.88 41.57-19.35 56.27-19.35 56.27-15.4 41.57-15.4 41.57 0 36.7 0 36.7-35.83Z" opacity="1" transform="matrix(1,0,0,1,0,0)" fill="#1503fc" class="undefined-text-0" data-fill-palette-color="primary" id="text-0"></path></svg></g></svg></g></svg></g></svg></g></svg></g></svg></g></svg></g><g><path d="M0 123.6c0-68.262 55.338-123.6 123.6-123.6 30.402 0 58.24 10.976 79.768 29.183l-11.147 0c-19.26-14.022-42.974-22.294-68.621-22.295-64.458 0-116.712 52.254-116.712 116.712 0 64.458 52.254 116.712 116.712 116.712 25.647 0 49.361-8.272 68.621-22.295l11.147 0c-21.528 18.206-49.366 29.183-79.768 29.183-68.262 0-123.6-55.338-123.6-123.6z" fill="#0046d9" stroke="transparent" data-fill-palette-color="tertiary"></path></g></svg></g><defs></defs></svg><rect width="395.52" height="247.2" fill="none" stroke="none" visibility="hidden"></rect></g></svg></g></svg>